{
  "source": "C:\\Users\\Peter\\Desktop\\stuff\\MIUN\\quantitative_research\\video_compression\\videos\\BVI-HD\\BVI-HD_CDVL_videos\\ORIG\\TreeGrassFamily_1920x1080_30fps.mp4",
  "output": "C:\\Users\\Peter\\Desktop\\stuff\\MIUN\\quantitative_research\\video_compression\\compressed_videos\\BVI-HD\\av1\\3\\TreeGrassFamily_1920x1080_30fps_av1.mkv",
  "codec": "av1",
  "ok": "Input #0, mov,mp4,m4a,3gp,3g2,mj2, from 'C:\\Users\\Peter\\Desktop\\stuff\\MIUN\\quantitative_research\\video_compression\\videos\\BVI-HD\\BVI-HD_CDVL_videos\\ORIG\\TreeGrassFamily_1920x1080_30fps.mp4':\n  Metadata:\n    major_brand     : isom\n    minor_version   : 512\n    compatible_brands: isomiso2avc1mp41\n    encoder         : Lavf54.28.101\n  Duration: 00:00:05.00, start: 0.000000, bitrate: 331787 kb/s\n  Stream #0:0[0x1](und): Video: h264 (High 4:4:4 Predictive) (avc1 / 0x31637661), yuv420p(progressive), 1920x1080, 331784 kb/s, 30 fps, 30 tbr, 30 tbn (default)\n    Metadata:\n      handler_name    : VideoHandler\n      vendor_id       : [0][0][0][0]\n[out#0/matroska @ 0000020585138f00] Codec AVOption b:a (set bitrate (in bits/s)) has not been used for any stream. The most likely reason is either wrong type (e.g. a video option with no video streams) or that it is a private option of some decoder which was not actually used for any stream.\nStream mapping:\n  Stream #0:0 -> #0:0 (h264 (native) -> av1 (libsvtav1))\nPress [q] to stop, [?] for help\nSvt[info]: -------------------------------------------\nSvt[info]: SVT [version]:\tSVT-AV1 Encoder Lib v3.1.0-19-g6ecfe8ec\nSvt[info]: SVT [build]  :\tGCC 15.2.0\t 64 bit\nSvt[info]: LIB Build date: Aug 17 2025 11:37:13\nSvt[info]: -------------------------------------------\nSvt[info]: Level of Parallelism: 5\nSvt[info]: Number of PPCS 93\nSvt[info]: [asm level on system : up to avx2]\nSvt[info]: [asm level selected : up to avx2]\nSvt[info]: -------------------------------------------\nSvt[info]: SVT [config]: main profile\ttier (auto)\tlevel (auto)\nSvt[info]: SVT [config]: width / height / fps numerator / fps denominator \t\t: 1920 / 1080 / 30 / 1\nSvt[info]: SVT [config]: bit-depth / color format \t\t\t\t\t: 8 / YUV420\nSvt[info]: SVT [config]: preset / tune / pred struct \t\t\t\t\t: 4 / PSNR / random access\nSvt[info]: SVT [config]: gop size / mini-gop size / key-frame type \t\t\t: 161 / 16 / key frame\nSvt[info]: SVT [config]: BRC mode / target bitrate (kbps)\t\t\t\t: VBR / 3000 \nSvt[info]: SVT [config]: AQ mode / Variance Boost \t\t\t\t\t: 2 / 0\nSvt[info]: SVT [config]: sharpness / luminance-based QP bias \t\t\t\t: 0 / 0\nSvt[info]: SVT [config]: QP scale compress strength \t\t\t\t\t: 0\nSvt[info]: -------------------------------------------\nOutput #0, matroska, to 'C:\\Users\\Peter\\Desktop\\stuff\\MIUN\\quantitative_research\\video_compression\\compressed_videos\\BVI-HD\\av1\\3\\TreeGrassFamily_1920x1080_30fps_av1.mkv':\n  Metadata:\n    major_brand     : isom\n    minor_version   : 512\n    compatible_brands: isomiso2avc1mp41\n    encoder         : Lavf62.3.100\n  Stream #0:0(und): Video: av1 (AV01 / 0x31305641), yuv420p(tv, progressive), 1920x1080, q=2-31, 3000 kb/s, 30 fps, 1k tbn (default)\n    Metadata:\n      encoder         : Lavc62.11.100 libsvtav1\n      handler_name    : VideoHandler\n      vendor_id       : [0][0][0][0]\n    Side data:\n      cpb: bitrate max/min/avg: 0/0/3000000 buffer size: 3000000 vbv_delay: N/A\nframe=    0 fps=0.0 q=0.0 size=       0KiB time=N/A bitrate=N/A speed=N/A elapsed=0:00:01.68    \nframe=    0 fps=0.0 q=0.0 size=       0KiB time=N/A bitrate=N/A speed=N/A elapsed=0:00:02.33    \nframe=    0 fps=0.0 q=0.0 size=       0KiB time=N/A bitrate=N/A speed=N/A elapsed=0:00:02.99    \nframe=    0 fps=0.0 q=0.0 size=       0KiB time=N/A bitrate=N/A speed=N/A elapsed=0:00:03.57    \nframe=    0 fps=0.0 q=0.0 size=       0KiB time=N/A bitrate=N/A speed=N/A elapsed=0:00:04.19    \nframe=    0 fps=0.0 q=0.0 size=       0KiB time=N/A bitrate=N/A speed=N/A elapsed=0:00:04.79    \nframe=    1 fps=0.2 q=24.0 size=       1KiB time=00:00:00.00 bitrate=N/A speed=   0x elapsed=0:00:05.34    \nframe=    1 fps=0.2 q=24.0 size=       1KiB time=00:00:00.00 bitrate=N/A speed=   0x elapsed=0:00:05.88    \nframe=    1 fps=0.2 q=24.0 size=       1KiB time=00:00:00.00 bitrate=N/A speed=   0x elapsed=0:00:06.43    \nframe=    4 fps=0.6 q=47.0 size=       1KiB time=00:00:00.10 bitrate=  57.0kbits/s speed=0.0144x elapsed=0:00:06.95    \nframe=    7 fps=0.9 q=44.0 size=       1KiB time=00:00:00.20 bitrate=  28.5kbits/s speed=0.0268x elapsed=0:00:07.46    \nframe=    8 fps=1.0 q=47.0 size=       1KiB time=00:00:00.23 bitrate=  24.4kbits/s speed=0.0292x elapsed=0:00:07.99    \nframe=   11 fps=1.3 q=44.0 size=       1KiB time=00:00:00.33 bitrate=  17.1kbits/s speed=0.0387x elapsed=0:00:08.61    \nframe=   14 fps=1.5 q=47.0 size=       1KiB time=00:00:00.40 bitrate=  14.3kbits/s speed=0.0431x elapsed=0:00:09.27    \nframe=   17 fps=1.7 q=34.0 size=       1KiB time=00:00:00.53 bitrate=  10.7kbits/s speed=0.0537x elapsed=0:00:09.92    \nframe=   19 fps=1.8 q=46.0 size=       1KiB time=00:00:00.60 bitrate=   9.5kbits/s speed=0.0574x elapsed=0:00:10.44    \nframe=   22 fps=2.0 q=47.0 size=       1KiB time=00:00:00.70 bitrate=   8.1kbits/s speed=0.0637x elapsed=0:00:10.98    \nframe=   23 fps=2.0 q=46.0 size=       1KiB time=00:00:00.73 bitrate=   7.8kbits/s speed=0.0635x elapsed=0:00:11.54    \nframe=   26 fps=2.1 q=47.0 size=       1KiB time=00:00:00.80 bitrate=   7.1kbits/s speed=0.0657x elapsed=0:00:12.17    \nframe=   27 fps=2.1 q=45.0 size=       1KiB time=00:00:00.86 bitrate=   6.6kbits/s speed=0.0679x elapsed=0:00:12.76    \nframe=   29 fps=2.2 q=42.0 size=       1KiB time=00:00:00.93 bitrate=   6.1kbits/s speed=0.0697x elapsed=0:00:13.38    \nframe=   33 fps=2.4 q=34.0 size=       1KiB time=00:00:01.03 bitrate=   5.5kbits/s speed=0.0741x elapsed=0:00:13.93    \nframe=   35 fps=2.4 q=47.0 size=       1KiB time=00:00:01.13 bitrate=   5.0kbits/s speed=0.0778x elapsed=0:00:14.57    \nframe=   38 fps=2.5 q=48.0 size=       1KiB time=00:00:01.20 bitrate=   4.8kbits/s speed=0.0791x elapsed=0:00:15.16    \nframe=   39 fps=2.5 q=47.0 size=       1KiB time=00:00:01.26 bitrate=   4.5kbits/s speed=0.0801x elapsed=0:00:15.80    \nframe=   41 fps=2.5 q=42.0 size=       1KiB time=00:00:01.33 bitrate=   4.3kbits/s speed=0.0811x elapsed=0:00:16.43    \nframe=   43 fps=2.5 q=45.0 size=       1KiB time=00:00:01.40 bitrate=   4.1kbits/s speed=0.0824x elapsed=0:00:16.98    \nframe=   47 fps=2.7 q=48.0 size=       1KiB time=00:00:01.53 bitrate=   3.7kbits/s speed=0.0873x elapsed=0:00:17.57    \nframe=   49 fps=2.7 q=35.0 size=       1KiB time=00:00:01.60 bitrate=   3.6kbits/s speed=0.0884x elapsed=0:00:18.10    \nframe=   52 fps=2.8 q=53.0 size=       1KiB time=00:00:01.70 bitrate=   3.4kbits/s speed=0.0912x elapsed=0:00:18.63    \nframe=   57 fps=3.0 q=42.0 size=       1KiB time=00:00:01.86 bitrate=   3.1kbits/s speed=0.0974x elapsed=0:00:19.16    \nframe=   57 fps=2.9 q=42.0 size=       1KiB time=00:00:01.86 bitrate=   3.1kbits/s speed=0.0948x elapsed=0:00:19.69    \nframe=   61 fps=3.0 q=47.0 size=       1KiB time=00:00:02.00 bitrate=   2.9kbits/s speed=0.0986x elapsed=0:00:20.27    \nframe=   65 fps=3.1 q=35.0 size=       1KiB time=00:00:02.13 bitrate=   2.7kbits/s speed=0.102x elapsed=0:00:20.87    \nframe=   69 fps=3.2 q=50.0 size=       1KiB time=00:00:02.26 bitrate=   2.5kbits/s speed=0.106x elapsed=0:00:21.45    \nframe=   73 fps=3.3 q=46.0 size=       1KiB time=00:00:02.40 bitrate=   2.4kbits/s speed=0.109x elapsed=0:00:21.95    \nframe=   75 fps=3.3 q=51.0 size=       1KiB time=00:00:02.46 bitrate=   2.3kbits/s speed=0.11x elapsed=0:00:22.48    \nframe=   77 fps=3.3 q=48.0 size=       1KiB time=00:00:02.53 bitrate=   2.3kbits/s speed=0.11x elapsed=0:00:23.00    \nframe=   81 fps=3.4 q=39.0 size=       1KiB time=00:00:02.66 bitrate=   2.1kbits/s speed=0.113x elapsed=0:00:23.58    \nframe=   87 fps=3.6 q=50.0 size=       1KiB time=00:00:02.86 bitrate=   2.0kbits/s speed=0.119x elapsed=0:00:24.12    \nframe=   89 fps=3.6 q=47.0 size=       1KiB time=00:00:02.93 bitrate=   1.9kbits/s speed=0.119x elapsed=0:00:24.66    \nframe=   93 fps=3.7 q=49.0 size=       1KiB time=00:00:03.06 bitrate=   1.9kbits/s speed=0.122x elapsed=0:00:25.19    \nframe=   99 fps=3.8 q=52.0 size=       1KiB time=00:00:03.26 bitrate=   1.7kbits/s speed=0.127x elapsed=0:00:25.76    \nframe=  103 fps=3.9 q=52.0 size=       1KiB time=00:00:03.40 bitrate=   1.7kbits/s speed=0.129x elapsed=0:00:26.30    \nframe=  105 fps=3.9 q=48.0 size=       1KiB time=00:00:03.46 bitrate=   1.6kbits/s speed=0.129x elapsed=0:00:26.84    \nframe=  109 fps=4.0 q=48.0 size=       1KiB time=00:00:03.60 bitrate=   1.6kbits/s speed=0.131x elapsed=0:00:27.43    \nframe=  113 fps=4.0 q=40.0 size=       1KiB time=00:00:03.73 bitrate=   1.5kbits/s speed=0.133x elapsed=0:00:28.01    \nframe=  117 fps=4.1 q=51.0 size=       1KiB time=00:00:03.86 bitrate=   1.5kbits/s speed=0.135x elapsed=0:00:28.54    \nframe=  121 fps=4.2 q=47.0 size=       1KiB time=00:00:04.00 bitrate=   1.4kbits/s speed=0.138x elapsed=0:00:29.05    \nframe=  123 fps=4.2 q=52.0 size=       1KiB time=00:00:04.06 bitrate=   1.4kbits/s speed=0.137x elapsed=0:00:29.61    \nframe=  129 fps=4.3 q=40.0 size=       1KiB time=00:00:04.26 bitrate=   1.3kbits/s speed=0.142x elapsed=0:00:30.14    \nframe=  133 fps=4.3 q=54.0 size=       1KiB time=00:00:04.40 bitrate=   1.3kbits/s speed=0.143x elapsed=0:00:30.67    \nframe=  137 fps=4.4 q=50.0 size=       1KiB time=00:00:04.53 bitrate=   1.3kbits/s speed=0.145x elapsed=0:00:31.19    \nframe=  141 fps=4.4 q=54.0 size=       1KiB time=00:00:04.66 bitrate=   1.2kbits/s speed=0.147x elapsed=0:00:31.74    \n[out#0/matroska @ 0000020585138f00] video:2062KiB audio:0KiB subtitle:0KiB other streams:0KiB global headers:0KiB muxing overhead: 0.069179%\nframe=  150 fps=4.7 q=54.0 Lsize=    2064KiB time=00:00:04.96 bitrate=3404.1kbits/s speed=0.155x elapsed=0:00:31.97    \n",
  "seconds": 32.666818380355835,
  "probe_out": {}
}